<svg width="114" height="57" viewBox="0 0 114 57" fill="none" xmlns="http://www.w3.org/2000/svg">
<g clip-path="url(#clip0_41_2136)">
<path d="M17.3492 32.8262H24.4194V40.0255H9.375V14.166H17.3492V32.8262Z" stroke="#2E367B" stroke-width="0.640515" stroke-miterlimit="10" stroke-linecap="round" stroke-linejoin="round"/>
<path fill-rule="evenodd" clip-rule="evenodd" d="M17.3492 32.8262H24.4194V40.0255H9.375V14.166H17.3492V32.8262Z" fill="#FEFEFE"/>
<path fill-rule="evenodd" clip-rule="evenodd" d="M16.4455 15.0698V33.73H23.5157V39.1214H10.3115V15.0698H16.4455Z" fill="#2E367B"/>
<path d="M97.93 36.442H92.8937L91.2472 39.8964H82.4014L94.4756 14.0369H105.872V39.8964H97.93V36.442Z" stroke="#2B2A29" stroke-width="0.640515" stroke-miterlimit="10" stroke-linecap="round" stroke-linejoin="round"/>
<path d="M97.9294 25.6267L96.4443 28.8228H97.9294V25.6267Z" stroke="#2B2A29" stroke-width="0.640515" stroke-miterlimit="10" stroke-linecap="round" stroke-linejoin="round"/>
<path fill-rule="evenodd" clip-rule="evenodd" d="M97.9299 36.442H97.1874V28.823H97.9299V25.6269L97.1874 27.2088V14.0369H105.904V39.9287H97.9299V36.442ZM97.1874 36.442H92.9259L91.2794 39.8964H82.4336L94.5078 14.0046H97.2197V27.2088L96.4771 28.7907H97.2197V36.442H97.1874Z" fill="#FEFEFE"/>
<path fill-rule="evenodd" clip-rule="evenodd" d="M98.8343 21.5266L94.9925 29.7268H98.8343V21.5266ZM98.8343 35.5379H92.3452L90.6987 38.9923H83.8545L95.057 14.9407H101.062H104.968V38.9923H98.8343V35.5379Z" fill="#2B2A29"/>
<path fill-rule="evenodd" clip-rule="evenodd" d="M56.574 52.132H63.0631C63.9025 52.132 64.5481 51.9383 64.9678 51.5186C65.3875 51.1312 65.6135 50.6146 65.6135 50.0012V46.9665C65.6135 46.3854 65.3875 45.9012 64.9356 45.546C64.4836 45.1909 63.7733 45.0295 62.8371 45.0295H52.8613V55.7801H56.574V52.132ZM56.574 46.9988H61.9009V50.0335H56.574V46.9988ZM67.26 45.0618V52.132H70.9727V46.9988H72.8451V47.6445H76.5578V46.9988C76.5578 46.4177 76.3318 45.9334 75.8798 45.5783C75.4279 45.2232 74.7176 45.0618 73.7814 45.0618H67.26ZM78.172 45.1586H81.8847V52.132H78.172V45.1586ZM78.172 44.513H81.8847V42.5759H78.172V44.513ZM87.2761 52.132V47.0634H91.7958V52.132H95.5408V47.0634C95.5408 46.4823 95.3148 45.998 94.8628 45.6752C94.4109 45.3201 93.7006 45.1586 92.7321 45.1586H83.5311V52.132H87.2761ZM98.0912 41.3814V45.1586H97.1227V47.0957H98.0912V50.2272C98.0912 50.8083 98.3172 51.2926 98.7692 51.6154C99.2212 51.9706 99.9314 52.132 100.9 52.132H101.836H106.291V50.1949H101.836V47.0634H106.291V45.1263H101.836V41.3491L98.0912 41.3814Z" fill="#2B2A29"/>
<path d="M77.2041 26.789L71.9095 32.0836L66.7764 26.9827L79.238 14.4888L79.8837 15.1344" stroke="#FFED00" stroke-width="0.640515" stroke-miterlimit="10" stroke-linecap="round" stroke-linejoin="round"/>
<path d="M79.8832 15.1346C81.6266 16.8779 83.1439 18.8795 84.1447 21.1394C84.9841 23.0442 85.4684 25.0781 85.4684 27.1765C85.4684 29.1458 85.0487 31.0183 84.2416 32.7939C83.4345 34.5696 82.3045 36.1515 80.9486 37.5074C79.5281 38.9279 77.8816 40.0901 76.0091 40.8649C74.2335 41.6075 72.3611 42.0272 70.4563 42.0272C68.5193 42.0594 66.6468 41.672 64.8389 40.9618C62.9341 40.2193 61.2554 39.057 59.8026 37.6043C58.3821 36.1838 57.2844 34.5696 56.5419 32.6971C55.8639 30.9537 55.5088 29.0813 55.5411 27.2088C55.5734 25.2718 56.0253 23.4316 56.7679 21.656C57.575 19.7512 58.7695 18.1047 60.2223 16.6196C61.3522 15.4897 62.6436 14.5858 64.0318 13.8755C65.42 13.1653 66.9051 12.681 68.4547 12.4227C69.972 12.1645 71.4894 12.1322 73.0067 12.3582C74.4918 12.5841 75.9446 13.0361 77.2682 13.7787" stroke="#FFED00" stroke-width="0.640515" stroke-miterlimit="10" stroke-linecap="round" stroke-linejoin="round"/>
<path d="M77.2686 13.8108L78.3017 14.4242L71.7158 21.0101L71.1992 20.881" stroke="#FFED00" stroke-width="0.640515" stroke-miterlimit="10" stroke-linecap="round" stroke-linejoin="round"/>
<path d="M71.199 20.881C70.1659 20.6227 69.0683 20.5259 68.0352 20.8487C67.1312 21.1716 66.3241 21.6235 65.6462 22.3015C65.0328 22.9149 64.5162 23.6574 64.1611 24.4645C63.8383 25.2393 63.6768 26.0464 63.7091 26.8535C63.7414 27.6929 63.9028 28.5 64.258 29.2748C64.6131 30.1142 65.1619 30.889 65.8399 31.5347C67.1958 32.8906 68.9069 34.0529 70.9085 34.0529C72.7164 34.0529 74.2014 33.3103 75.4605 32.0513C76.3322 31.1796 76.9456 30.1788 77.2361 29.0166C77.4298 28.274 77.3653 27.4992 77.1716 26.789" stroke="#FFED00" stroke-width="0.640515" stroke-miterlimit="10" stroke-linecap="round" stroke-linejoin="round"/>
<path fill-rule="evenodd" clip-rule="evenodd" d="M77.2037 26.7891L71.9091 32.0837L66.7759 26.9505L79.2376 14.4889L79.8832 15.1346C81.6266 16.8779 83.1439 18.8795 84.1447 21.1394C84.9841 23.0442 85.4684 25.0781 85.4684 27.1765C85.4684 29.1458 85.0487 31.0183 84.2416 32.7939C83.4345 34.5696 82.3045 36.1515 80.9486 37.5074C79.5281 38.9279 77.8816 40.0901 76.0091 40.8649C74.2335 41.6075 72.3611 42.0272 70.4563 42.0272C68.5193 42.0594 66.6468 41.672 64.8389 40.9618C62.9341 40.2193 61.2554 39.057 59.8026 37.6043C58.3821 36.1838 57.2844 34.5696 56.5419 32.6971C55.8639 30.9537 55.5088 29.0813 55.5411 27.2088C55.5734 25.2718 56.0253 23.4316 56.7679 21.656C57.575 19.7512 58.7695 18.1047 60.2223 16.6196C61.3522 15.4897 62.6436 14.5858 64.0318 13.8755C65.42 13.1653 66.9051 12.681 68.4547 12.4227C69.972 12.1645 71.4894 12.1322 73.0067 12.3582C74.4918 12.5841 75.9446 13.0361 77.2682 13.7787L78.3336 14.3598L71.7477 20.9457L71.2311 20.8166C70.198 20.5583 69.1004 20.4614 68.0673 20.7843C67.1633 21.1071 66.3562 21.5591 65.6783 22.2371C65.0649 22.8505 64.5483 23.593 64.1932 24.4001C63.8704 25.1749 63.7089 25.982 63.7412 26.7891C63.7735 27.6285 63.9349 28.4356 64.2901 29.2104C64.6452 30.0498 65.194 30.8246 65.872 31.4703C67.2279 32.8262 68.939 33.9884 70.9406 33.9884C72.7485 33.9884 74.2335 33.2459 75.4926 31.9868C76.3643 31.1152 76.9777 30.1144 77.2682 28.9521C77.4296 28.2742 77.3974 27.5316 77.2037 26.7891Z" fill="#FEFEFE"/>
<path fill-rule="evenodd" clip-rule="evenodd" d="M65.1938 32.2127C67.0662 34.0852 68.9387 34.9892 70.908 35.0215C72.8451 35.0215 74.5884 34.2789 76.1058 32.7293C77.1389 31.6962 77.8168 30.534 78.1397 29.2749C78.4625 27.9835 78.2688 26.6276 77.5585 25.1748L71.9088 30.8245L68.067 26.9827L79.2373 15.8125C81.1098 17.6849 82.4657 19.5897 83.3051 21.5267C84.1445 23.4638 84.5642 25.3685 84.5642 27.2087C84.5642 29.0489 84.1768 30.7922 83.402 32.471C82.6271 34.1175 81.594 35.6026 80.2704 36.9262C78.8822 38.3144 77.3326 39.3798 75.6215 40.09C73.9104 40.8003 72.1671 41.1877 70.3915 41.1877C68.6159 41.22 66.8725 40.8649 65.1292 40.1869C63.3859 39.5089 61.8362 38.4436 60.4157 37.0553C59.0275 35.6671 58.0267 34.1498 57.381 32.471C56.7031 30.7922 56.4125 29.0812 56.4448 27.3379C56.4771 25.5945 56.8645 23.8512 57.607 22.1401C58.3496 20.4291 59.4149 18.8472 60.8677 17.3944C61.9008 16.3613 63.1276 15.4896 64.4512 14.8117C65.8072 14.1337 67.1954 13.6817 68.6159 13.4234C70.0687 13.1975 71.4891 13.1652 72.9096 13.3589C74.3301 13.5526 75.6538 14.0046 76.8483 14.6502L71.4569 20.0417C70.0687 19.6865 68.8419 19.6865 67.7765 20.0417C66.7111 20.3968 65.8072 20.9779 65.0323 21.7204C64.2898 22.463 63.741 23.3024 63.3536 24.2063C62.9662 25.1103 62.8047 26.0465 62.837 26.9504C62.8693 27.8867 63.063 28.7906 63.4504 29.6946C63.8056 30.5985 64.3867 31.4379 65.1938 32.2127Z" fill="#FFED00"/>
<path d="M37.3008 33.5039C37.3331 33.5362 37.3976 33.5362 37.4299 33.5685C38.2047 33.8913 39.0118 34.085 39.8512 34.1173C40.6906 34.1496 41.4977 33.9559 42.2402 33.6654C43.0796 33.3425 43.7899 32.826 44.4033 32.1803C45.0812 31.5023 45.5655 30.6952 45.856 29.7913C46.2112 28.7582 46.1143 27.6605 45.8238 26.6274" stroke="#E31E24" stroke-width="0.640515" stroke-miterlimit="10" stroke-linecap="round" stroke-linejoin="round"/>
<path d="M45.8557 26.5952L45.7266 26.0786L52.3125 19.4927L52.8936 20.558" stroke="#E31E24" stroke-width="0.640515" stroke-miterlimit="10" stroke-linecap="round" stroke-linejoin="round"/>
<path d="M52.8939 20.5583C53.6365 21.8819 54.0884 23.3024 54.3144 24.8198C54.5404 26.3371 54.5081 27.8868 54.2499 29.3718C53.9916 30.9215 53.5073 32.4065 52.7971 33.7947C52.0868 35.2152 51.1506 36.5066 50.0529 37.6043C48.6002 39.057 46.9214 40.2515 45.0166 41.0586C43.241 41.8012 41.4008 42.2532 39.4638 42.2854C37.5913 42.3177 35.7188 41.9626 33.9755 41.2846C32.103 40.5421 30.4888 39.4444 29.0683 38.0239C27.6156 36.5712 26.4856 34.8924 25.7108 32.9876C25.0005 31.1797 24.6131 29.3073 24.6454 27.3702C24.6777 25.4332 25.0651 23.593 25.8076 21.8174C26.5825 19.9449 27.7447 18.2984 29.1652 16.8779C30.5534 15.4897 32.1353 14.392 33.8786 13.5849C35.6543 12.7778 37.5267 12.3582 39.4961 12.3582C41.5945 12.3582 43.6284 12.8424 45.5332 13.6818C47.7931 14.6503 49.7947 16.2 51.538 17.9433" stroke="#E31E24" stroke-width="0.640515" stroke-miterlimit="10" stroke-linecap="round" stroke-linejoin="round"/>
<path d="M51.5703 17.9109L52.216 18.5566L37.3008 33.5041" stroke="#E31E24" stroke-width="0.640515" stroke-miterlimit="10" stroke-linecap="round" stroke-linejoin="round"/>
<path d="M32.7168 27.8219L39.9161 20.6226" stroke="#E31E24" stroke-width="0.640515" stroke-miterlimit="10" stroke-linecap="round" stroke-linejoin="round"/>
<path d="M39.9153 20.6229C39.205 20.4292 38.4302 20.3647 37.6877 20.5584C36.4932 20.8489 35.4924 21.4946 34.653 22.334C33.3939 23.5931 32.6191 25.0781 32.6514 26.886C32.6514 27.2089 32.6836 27.4994 32.7482 27.79" stroke="#E31E24" stroke-width="0.640515" stroke-miterlimit="10" stroke-linecap="round" stroke-linejoin="round"/>
<path fill-rule="evenodd" clip-rule="evenodd" d="M37.3008 33.504C37.3331 33.5363 37.3977 33.5363 37.43 33.5686C38.2048 33.8914 39.0119 34.0851 39.8513 34.1174C40.6906 34.1497 41.4977 33.956 42.2403 33.6654C43.0797 33.3426 43.7899 32.826 44.4033 32.1804C45.0813 31.5024 45.5655 30.6953 45.8561 29.7913C46.2112 28.7582 46.1143 27.6606 45.8238 26.6275L45.6947 26.111L52.2806 19.525L52.8617 20.5904C53.6042 21.914 54.0562 23.3345 54.2822 24.8519C54.5082 26.3692 54.4759 27.9189 54.2176 29.4039C53.9594 30.9536 53.4751 32.4386 52.7649 33.8268C52.0546 35.2473 51.1184 36.5387 50.0207 37.6364C48.5679 39.0891 46.8892 40.2836 44.9844 41.0907C43.2088 41.8333 41.3686 42.2853 39.4316 42.3175C38.3662 42.3498 37.3008 42.2207 36.2354 41.9947V24.2708L39.8835 20.6227C39.1733 20.429 38.3985 20.3644 37.6559 20.5581C37.1394 20.6872 36.6874 20.8809 36.2354 21.1069V12.7454C37.3008 12.4871 38.3662 12.358 39.4961 12.3257C41.5946 12.3257 43.6285 12.8099 45.5332 13.6493C47.7931 14.6178 49.7947 16.1675 51.5381 17.9108L52.1837 18.5565L37.3008 33.504ZM36.2677 41.9624C35.4929 41.801 34.7181 41.575 33.9433 41.2522C32.0708 40.5096 30.4566 39.412 29.0361 37.9915C27.5833 36.5387 26.4534 34.8599 25.6786 32.9552C24.9683 31.1473 24.5809 29.2748 24.6132 27.3378C24.6455 25.4007 25.0329 23.5605 25.7754 21.7849C26.5502 19.9124 27.7125 18.2659 29.133 16.8454C30.5212 15.4572 32.1031 14.3596 33.8464 13.5525C34.6212 13.1974 35.3961 12.9068 36.2032 12.7131V21.0747C35.622 21.3975 35.0732 21.8172 34.589 22.3014C33.3299 23.5605 32.5551 25.0456 32.5873 26.8535C32.5873 27.1763 32.6196 27.4669 32.6842 27.7574L36.2354 24.2062L36.2677 41.9624Z" fill="#FEFEFE"/>
<path fill-rule="evenodd" clip-rule="evenodd" d="M32.2962 29.5329C31.9088 28.6613 31.7151 27.7896 31.7151 26.9179C31.7151 24.9809 32.4576 23.2375 34.0073 21.7202C35.0403 20.6871 36.2026 20.0091 37.4616 19.6863C38.753 19.3635 40.1089 19.5572 41.5617 20.2674L32.2962 29.5329ZM35.8152 33.6976L50.9564 18.5564C49.0839 16.6839 47.1791 15.328 45.2421 14.4886C43.3051 13.6492 41.4003 13.2295 39.5601 13.2295C37.7199 13.2295 35.9766 13.6169 34.2978 14.3917C32.6513 15.1665 31.1663 16.1996 29.8426 17.5233C28.4544 18.9115 27.389 20.4611 26.6788 22.1722C25.9685 23.8832 25.5811 25.6266 25.5811 27.4022C25.5488 29.1778 25.904 30.9211 26.5819 32.6645C27.2599 34.4078 28.3253 35.9574 29.7135 37.3779C31.1017 38.7661 32.619 39.767 34.2978 40.4449C35.9766 41.1229 37.6876 41.4134 39.431 41.3812C41.1743 41.3489 42.9176 40.9615 44.6287 40.2189C46.3397 39.4764 47.9217 38.411 49.3744 36.9582C50.4075 35.9252 51.2792 34.6984 51.9572 33.3747C52.6351 32.0188 53.0871 30.6306 53.3454 29.2101C53.5714 27.7573 53.6036 26.3368 53.4099 24.9163C53.2162 23.4958 52.7643 22.1722 52.1186 20.9777L46.7272 26.3691C47.0823 27.7573 47.0823 28.9841 46.7272 30.0495C46.372 31.1148 45.7909 32.0188 45.0484 32.7936C44.3059 33.5361 43.4665 34.085 42.5625 34.4724C41.6586 34.8598 40.7223 35.0212 39.8184 34.9889C38.8821 34.9566 37.9782 34.7629 37.0742 34.3755C36.6223 34.2141 36.2026 33.9881 35.8152 33.6976Z" fill="#E31E24"/>
<path d="M55.4122 33.2778L55.3799 33.6652" stroke="#E31E24" stroke-width="0.320193" stroke-miterlimit="10"/>
<path d="M55.3793 33.6655C55.0564 39.7349 52.3446 45.4815 47.8894 49.5815C43.9507 53.2296 38.979 55.3927 33.6521 56.0706C30.5206 56.458 27.2599 56.5549 24.0961 56.6195C20.1897 56.684 16.2833 56.684 12.4092 56.684C9.11627 56.684 5.79102 56.684 2.49805 56.7486" stroke="#E31E24" stroke-width="0.320193" stroke-miterlimit="10"/>
<path d="M2.53091 56.7162L1.07812 56.7485L8.6003 40.6064" stroke="#E31E24" stroke-width="0.320193" stroke-miterlimit="10"/>
<path fill-rule="evenodd" clip-rule="evenodd" d="M54.4762 33.6008C52.2486 39.4442 46.5666 43.7057 40.465 44.0608C35.9129 44.3191 31.0703 42.8986 27.1317 38.2497L25.8726 38.4111V41.4781L9.18176 41.5104L2.53125 55.8122C13.185 55.6185 26.3891 56.0705 33.5885 55.1666C39.0122 54.4886 43.7257 52.2287 47.3092 48.9357C51.5384 44.9971 54.1534 39.4765 54.4762 33.6008Z" fill="#E31E24"/>
<path d="M54.1855 20.8487C55.0249 15.1022 58.7699 9.61387 63.5802 6.51461C68.9716 3.02793 75.3316 0.703484 81.7884 0.638916" stroke="#FFED00" stroke-width="0.320193" stroke-miterlimit="10"/>
<path d="M81.7881 0.639117L112.781 0.251709L106.711 13.2945" stroke="#FFED00" stroke-width="0.320193" stroke-miterlimit="10"/>
<path fill-rule="evenodd" clip-rule="evenodd" d="M54.96 22.2371C55.7025 19.5575 57.1876 17.5236 58.9632 15.6189C60.7065 13.7141 62.8373 12.3582 65.1294 11.5188C67.8736 10.518 70.9083 10.292 73.8784 10.8731C77.817 11.648 81.5297 13.811 83.9187 17.4914H91.0212L93.3779 12.4228H106.098L111.328 1.22021L81.788 1.60762C74.9761 1.63991 68.7452 4.2872 64.0963 7.28961C59.1569 10.4857 55.3474 16.3291 54.96 22.2371Z" fill="#FFED00"/>
<path fill-rule="evenodd" clip-rule="evenodd" d="M16.154 43.5444C16.9611 43.5444 17.6391 44.1901 17.6391 45.0295C17.6391 45.8689 16.9934 46.5146 16.154 46.5146C15.3469 46.5146 14.6689 45.8689 14.6689 45.0295C14.6689 44.1901 15.3469 43.5444 16.154 43.5444Z" fill="#FEFEFE"/>
<path fill-rule="evenodd" clip-rule="evenodd" d="M11.5056 43.5444C12.3127 43.5444 12.9906 44.1901 12.9906 45.0295C12.9906 45.8689 12.345 46.5146 11.5056 46.5146C10.6985 46.5146 10.0205 45.8689 10.0205 45.0295C10.0205 44.1901 10.6985 43.5444 11.5056 43.5444Z" fill="#FEFEFE"/>
<path fill-rule="evenodd" clip-rule="evenodd" d="M20.3517 43.835C20.9974 43.835 21.5462 44.3515 21.5462 45.0295C21.5462 45.6751 21.0297 46.224 20.3517 46.224C19.7061 46.224 19.1572 45.7074 19.1572 45.0295C19.1895 44.3838 19.7061 43.835 20.3517 43.835Z" fill="#FEFEFE"/>
<path fill-rule="evenodd" clip-rule="evenodd" d="M24.2254 44.0286C24.7742 44.0286 25.2262 44.4805 25.2262 45.0294C25.2262 45.5782 24.7742 46.0302 24.2254 46.0302C23.6766 46.0302 23.2246 45.5782 23.2246 45.0294C23.2246 44.4805 23.6766 44.0286 24.2254 44.0286Z" fill="#FEFEFE"/>
<path fill-rule="evenodd" clip-rule="evenodd" d="M27.6148 44.1902C28.099 44.1902 28.4542 44.5776 28.4542 45.0296C28.4542 45.5138 28.0668 45.869 27.6148 45.869C27.1305 45.869 26.7754 45.4815 26.7754 45.0296C26.7754 44.5453 27.1628 44.1902 27.6148 44.1902Z" fill="#FEFEFE"/>
<path fill-rule="evenodd" clip-rule="evenodd" d="M30.9732 44.1902C31.4574 44.1902 31.8126 44.5776 31.8126 45.0296C31.8126 45.5138 31.4251 45.869 30.9732 45.869C30.4889 45.869 30.1338 45.4815 30.1338 45.0296C30.1338 44.5453 30.5212 44.1902 30.9732 44.1902Z" fill="#FEFEFE"/>
<path fill-rule="evenodd" clip-rule="evenodd" d="M16.154 47.1924C16.9611 47.1924 17.6391 47.8381 17.6391 48.6774C17.6391 49.4845 16.9934 50.1625 16.154 50.1625C15.3469 50.1625 14.6689 49.5168 14.6689 48.6774C14.7012 47.8703 15.3469 47.1924 16.154 47.1924Z" fill="#FEFEFE"/>
<path fill-rule="evenodd" clip-rule="evenodd" d="M16.154 50.9373C16.9611 50.9373 17.6391 51.5829 17.6391 52.4223C17.6391 53.2294 16.9934 53.9074 16.154 53.9074C15.3469 53.9074 14.6689 53.2617 14.6689 52.4223C14.7012 51.6152 15.3469 50.9373 16.154 50.9373Z" fill="#FEFEFE"/>
<path fill-rule="evenodd" clip-rule="evenodd" d="M11.5056 47.1924C12.3127 47.1924 12.9906 47.8381 12.9906 48.6774C12.9906 49.4845 12.345 50.1625 11.5056 50.1625C10.6985 50.1625 10.0205 49.5168 10.0205 48.6774C10.0205 47.8703 10.6985 47.1924 11.5056 47.1924Z" fill="#FEFEFE"/>
<path fill-rule="evenodd" clip-rule="evenodd" d="M11.5056 50.9373C12.3127 50.9373 12.9906 51.5829 12.9906 52.4223C12.9906 53.2294 12.345 53.9074 11.5056 53.9074C10.6985 53.9074 10.0205 53.2617 10.0205 52.4223C10.0205 51.6152 10.6985 50.9373 11.5056 50.9373Z" fill="#FEFEFE"/>
<path fill-rule="evenodd" clip-rule="evenodd" d="M20.3517 47.4829C20.9974 47.4829 21.5462 47.9995 21.5462 48.6774C21.5462 49.3231 21.0297 49.8719 20.3517 49.8719C19.7061 49.8719 19.1572 49.3554 19.1572 48.6774C19.1895 48.0317 19.7061 47.4829 20.3517 47.4829Z" fill="#FEFEFE"/>
<path fill-rule="evenodd" clip-rule="evenodd" d="M20.3517 51.228C20.9974 51.228 21.5462 51.7446 21.5462 52.4225C21.5462 53.1005 21.0297 53.617 20.3517 53.617C19.7061 53.617 19.1572 53.0682 19.1572 52.4225C19.1572 51.7769 19.7061 51.228 20.3517 51.228Z" fill="#FEFEFE"/>
<path fill-rule="evenodd" clip-rule="evenodd" d="M24.2254 47.6768C24.7742 47.6768 25.2262 48.1287 25.2262 48.6776C25.2262 49.2264 24.7742 49.6784 24.2254 49.6784C23.6766 49.6784 23.2246 49.2264 23.2246 48.6776C23.2246 48.1287 23.6766 47.6768 24.2254 47.6768Z" fill="#FEFEFE"/>
<path fill-rule="evenodd" clip-rule="evenodd" d="M24.2254 51.4216C24.7742 51.4216 25.2262 51.8736 25.2262 52.4224C25.2262 52.9713 24.7742 53.4232 24.2254 53.4232C23.6766 53.4232 23.2246 52.9713 23.2246 52.4224C23.2246 51.8736 23.6766 51.4216 24.2254 51.4216Z" fill="#FEFEFE"/>
<path fill-rule="evenodd" clip-rule="evenodd" d="M27.6148 47.8384C28.099 47.8384 28.4542 48.2258 28.4542 48.6778C28.4542 49.162 28.0668 49.5172 27.6148 49.5172C27.1305 49.5172 26.7754 49.1297 26.7754 48.6778C26.7754 48.2258 27.1628 47.8384 27.6148 47.8384Z" fill="#FEFEFE"/>
<path fill-rule="evenodd" clip-rule="evenodd" d="M27.6148 51.5508C28.099 51.5508 28.4542 51.9382 28.4542 52.3902C28.4542 52.8744 28.0668 53.2296 27.6148 53.2296C27.1305 53.2296 26.7754 52.8421 26.7754 52.3902C26.7754 51.9382 27.1628 51.5508 27.6148 51.5508Z" fill="#FEFEFE"/>
<path fill-rule="evenodd" clip-rule="evenodd" d="M30.9732 47.8384C31.4574 47.8384 31.8126 48.2258 31.8126 48.6778C31.8126 49.162 31.4251 49.5172 30.9732 49.5172C30.4889 49.5172 30.1338 49.1297 30.1338 48.6778C30.1338 48.2258 30.5212 47.8384 30.9732 47.8384Z" fill="#FEFEFE"/>
<path fill-rule="evenodd" clip-rule="evenodd" d="M30.9732 51.5508C31.4574 51.5508 31.8126 51.9382 31.8126 52.3902C31.8126 52.8744 31.4251 53.2296 30.9732 53.2296C30.4889 53.2296 30.1338 52.8421 30.1338 52.3902C30.1338 51.9382 30.5212 51.5508 30.9732 51.5508Z" fill="#FEFEFE"/>
<path fill-rule="evenodd" clip-rule="evenodd" d="M98.6081 10.0981C97.801 10.0981 97.123 9.45238 97.123 8.61299C97.123 7.77361 97.7687 7.12793 98.6081 7.12793C99.4152 7.12793 100.093 7.77361 100.093 8.61299C100.093 9.45238 99.4152 10.0981 98.6081 10.0981Z" fill="#FEFEFE"/>
<path fill-rule="evenodd" clip-rule="evenodd" d="M103.257 10.0981C102.449 10.0981 101.771 9.45238 101.771 8.61299C101.771 7.77361 102.417 7.12793 103.257 7.12793C104.064 7.12793 104.742 7.77361 104.742 8.61299C104.742 9.45238 104.064 10.0981 103.257 10.0981Z" fill="#FEFEFE"/>
<path fill-rule="evenodd" clip-rule="evenodd" d="M94.4113 9.80747C93.7656 9.80747 93.2168 9.29093 93.2168 8.61297C93.2168 7.935 93.7333 7.41846 94.4113 7.41846C95.057 7.41846 95.6058 7.935 95.6058 8.61297C95.6058 9.29093 95.057 9.80747 94.4113 9.80747Z" fill="#FEFEFE"/>
<path fill-rule="evenodd" clip-rule="evenodd" d="M90.5369 9.61391C89.9881 9.61391 89.5361 9.16194 89.5361 8.61311C89.5361 8.06428 89.9881 7.6123 90.5369 7.6123C91.0858 7.6123 91.5377 8.06428 91.5377 8.61311C91.5377 9.16194 91.1181 9.61391 90.5369 9.61391Z" fill="#FEFEFE"/>
<path fill-rule="evenodd" clip-rule="evenodd" d="M87.147 9.48468C86.6627 9.48468 86.3076 9.09727 86.3076 8.64529C86.3076 8.16103 86.695 7.80591 87.147 7.80591C87.6313 7.80591 87.9864 8.19332 87.9864 8.64529C88.0187 9.09727 87.6313 9.48468 87.147 9.48468Z" fill="#FEFEFE"/>
<path fill-rule="evenodd" clip-rule="evenodd" d="M83.7896 9.48468C83.3053 9.48468 82.9502 9.09727 82.9502 8.64529C82.9502 8.16103 83.3376 7.80591 83.7896 7.80591C84.2738 7.80591 84.629 8.19332 84.629 8.64529C84.6613 9.09727 84.2738 9.48468 83.7896 9.48468Z" fill="#FEFEFE"/>
<path fill-rule="evenodd" clip-rule="evenodd" d="M98.6081 6.45011C97.801 6.45011 97.123 5.80443 97.123 4.96505C97.123 4.15794 97.7687 3.47998 98.6081 3.47998C99.4152 3.47998 100.093 4.12566 100.093 4.96505C100.093 5.77215 99.4152 6.45011 98.6081 6.45011Z" fill="#FEFEFE"/>
<path fill-rule="evenodd" clip-rule="evenodd" d="M103.257 6.45011C102.449 6.45011 101.771 5.80443 101.771 4.96505C101.771 4.15794 102.417 3.47998 103.257 3.47998C104.064 3.47998 104.742 4.12566 104.742 4.96505C104.742 5.77215 104.064 6.45011 103.257 6.45011Z" fill="#FEFEFE"/>
<path fill-rule="evenodd" clip-rule="evenodd" d="M94.4113 6.15952C93.7656 6.15952 93.2168 5.64298 93.2168 4.96502C93.2168 4.31934 93.7333 3.77051 94.4113 3.77051C95.057 3.77051 95.6058 4.28705 95.6058 4.96502C95.6058 5.64298 95.057 6.15952 94.4113 6.15952Z" fill="#FEFEFE"/>
<path fill-rule="evenodd" clip-rule="evenodd" d="M90.5369 5.96572C89.9881 5.96572 89.5361 5.51374 89.5361 4.96492C89.5361 4.41609 89.9881 3.96411 90.5369 3.96411C91.0858 3.96411 91.5377 4.41609 91.5377 4.96492C91.5377 5.51374 91.1181 5.96572 90.5369 5.96572Z" fill="#FEFEFE"/>
<path fill-rule="evenodd" clip-rule="evenodd" d="M87.147 5.83673C86.6627 5.83673 86.3076 5.44932 86.3076 4.99734C86.3076 4.51308 86.695 4.15796 87.147 4.15796C87.6313 4.15796 87.9864 4.54537 87.9864 4.99734C88.0187 5.44932 87.6313 5.83673 87.147 5.83673Z" fill="#FEFEFE"/>
<path fill-rule="evenodd" clip-rule="evenodd" d="M83.7896 5.83673C83.3053 5.83673 82.9502 5.44932 82.9502 4.99734C82.9502 4.51308 83.3376 4.15796 83.7896 4.15796C84.2738 4.15796 84.629 4.54537 84.629 4.99734C84.6613 5.44932 84.2738 5.83673 83.7896 5.83673Z" fill="#FEFEFE"/>
</g>
<defs>
<clipPath id="clip0_41_2136">
<rect width="112.219" height="56.8199" fill="white" transform="translate(0.819336 0.0900879)"/>
</clipPath>
</defs>
</svg>
